<svg xmlns="http://www.w3.org/2000/svg" viewBox="0 0 400 300" preserveAspectRatio="xMidYMid slice">
  <defs>
    <linearGradient id="bg" x1="0" x2="1" y1="0" y2="1">
      <stop offset="0%" stop-color="#1F4F3A"></stop>
      <stop offset="100%" stop-color="#0E2A1F"></stop>
    </linearGradient>
  </defs>
  <rect width="400" height="300" fill="url(#bg)"></rect>
  
  <g stroke="#5FB890" stroke-width="1.2" fill="none" opacity="0.55">
    <ellipse cx="200" cy="180" rx="40" ry="10"></ellipse>
    <ellipse cx="200" cy="180" rx="70" ry="18"></ellipse>
    <ellipse cx="200" cy="180" rx="100" ry="26" opacity="0.4"></ellipse>
    <ellipse cx="200" cy="180" rx="135" ry="34" opacity="0.25"></ellipse>
  </g>
  
  <path d="M200 110 C190 130 180 145 180 158 a20 20 0 0 0 40 0 C220 145 210 130 200 110 Z" fill="#A8E0C2" opacity="0.85"></path>
  <path d="M195 130 C190 140 188 148 188 154 a8 8 0 0 0 16 0 C204 148 200 140 195 130 Z" fill="#fff" opacity="0.4"></path>
  
  <g fill="#5FB890" opacity="0.7">
    <circle cx="140" cy="190" r="3"></circle>
    <circle cx="260" cy="195" r="4"></circle>
    <circle cx="120" cy="210" r="2"></circle>
    <circle cx="280" cy="215" r="2.5"></circle>
  </g>
</svg>