<svg xmlns="http://www.w3.org/2000/svg" viewBox="0 0 400 300" preserveAspectRatio="xMidYMid slice">
  <defs>
    <linearGradient id="bg" x1="0" x2="1" y1="0" y2="1">
      <stop offset="0%" stop-color="#1B3A5C"></stop>
      <stop offset="100%" stop-color="#0A1A2C"></stop>
    </linearGradient>
  </defs>
  <rect width="400" height="300" fill="url(#bg)"></rect>
  
  <g fill="#fff">
    <circle cx="60" cy="50" r="0.8"></circle>
    <circle cx="120" cy="35" r="1.2"></circle>
    <circle cx="180" cy="60" r="0.7"></circle>
    <circle cx="240" cy="40" r="1"></circle>
    <circle cx="320" cy="55" r="0.9"></circle>
    <circle cx="80" cy="90" r="0.6"></circle>
    <circle cx="350" cy="100" r="0.8"></circle>
    <circle cx="280" cy="80" r="1.1"></circle>
  </g>
  
  <g transform="translate(280 100)">
    <circle cx="0" cy="0" r="35" fill="#F4E4B8"></circle>
    <circle cx="10" cy="-5" r="33" fill="#0A1A2C"></circle>
  </g>
  
  <path d="M0 240 Q100 220 200 230 Q300 240 400 225 L400 300 L0 300 Z" fill="#3D2818"></path>
  <g fill="#1A0E08">
    <ellipse cx="100" cy="240" rx="20" ry="6"></ellipse>
    <ellipse cx="200" cy="245" rx="25" ry="7"></ellipse>
    <ellipse cx="310" cy="242" rx="18" ry="6"></ellipse>
  </g>
  
  <g stroke="#E8B968" stroke-width="2" fill="none" opacity="0.5">
    <ellipse cx="80" cy="170" rx="14" ry="8" transform="rotate(20 80 170)"></ellipse>
    <ellipse cx="105" cy="178" rx="14" ry="8" transform="rotate(-20 105 178)"></ellipse>
    <ellipse cx="130" cy="170" rx="14" ry="8" transform="rotate(20 130 170)"></ellipse>
  </g>
</svg>