<svg xmlns="http://www.w3.org/2000/svg" viewBox="0 0 400 300" preserveAspectRatio="xMidYMid slice">
  <defs>
    <linearGradient id="bg" x1="0" x2="0" y1="0" y2="1">
      <stop offset="0%" stop-color="#0A2540"></stop>
      <stop offset="100%" stop-color="#020812"></stop>
    </linearGradient>
  </defs>
  <rect width="400" height="300" fill="url(#bg)"></rect>
  
  <g stroke="#4DA3FF" stroke-width="0.8" fill="none" opacity="0.4">
    <line x1="80" y1="100" x2="160" y2="80"></line>
    <line x1="160" y1="80" x2="240" y2="120"></line>
    <line x1="240" y1="120" x2="320" y2="90"></line>
    <line x1="80" y1="100" x2="140" y2="180"></line>
    <line x1="140" y1="180" x2="220" y2="200"></line>
    <line x1="220" y1="200" x2="300" y2="170"></line>
    <line x1="160" y1="80" x2="220" y2="200"></line>
    <line x1="240" y1="120" x2="140" y2="180"></line>
  </g>
  <g fill="#4DA3FF">
    <circle cx="80" cy="100" r="4"></circle>
    <circle cx="160" cy="80" r="4"></circle>
    <circle cx="240" cy="120" r="5"></circle>
    <circle cx="320" cy="90" r="3"></circle>
    <circle cx="140" cy="180" r="4"></circle>
    <circle cx="220" cy="200" r="5"></circle>
    <circle cx="300" cy="170" r="4"></circle>
  </g>
  <g fill="#FFD78A">
    <circle cx="160" cy="80" r="2"></circle>
    <circle cx="240" cy="120" r="2"></circle>
    <circle cx="220" cy="200" r="2"></circle>
  </g>
</svg>