<svg xmlns="http://www.w3.org/2000/svg" viewBox="0 0 600 800" aria-label="Insan logo">
  
  <rect width="600" height="800" fill="#A03238"></rect>
  <g fill="#FFFFFF" fill-rule="evenodd">
    
    <path d="M 175 95&#xA;             C 168 70 172 45 198 30&#xA;             C 222 50 224 85 212 130&#xA;             C 208 148 196 158 188 156&#xA;             C 178 152 172 130 175 95 Z"></path>

    
    <g>
      
      <path d="M 188 175&#xA;               C 188 240 198 320 215 400&#xA;               C 232 480 252 540 270 580&#xA;               L 250 595&#xA;               C 220 555 196 490 178 410&#xA;               C 162 335 158 250 162 195 Z"></path>

      
      <path d="M 248 590&#xA;               C 290 615 350 620 405 600&#xA;               C 460 580 500 540 525 490&#xA;               L 545 510&#xA;               C 525 565 478 615 412 642&#xA;               C 348 668 285 660 232 625 Z"></path>

      
      <path d="M 322 545 L 350 530 L 378 545 L 350 560 Z"></path>

      
      <path d="M 395 502&#xA;               C 395 478 405 460 420 450&#xA;               L 440 458&#xA;               C 428 470 422 488 425 510 Z"></path>
      <path d="M 432 488&#xA;               C 432 466 442 450 456 442&#xA;               L 474 451&#xA;               C 462 462 456 478 460 498 Z"></path>
      <path d="M 470 472&#xA;               C 470 452 480 438 494 432&#xA;               L 510 442&#xA;               C 498 452 492 466 496 484 Z"></path>

      
      <path d="M 510 470&#xA;               C 506 380 504 290 512 200&#xA;               C 514 175 522 160 538 156&#xA;               C 552 165 556 195 552 250&#xA;               C 548 340 544 430 540 480&#xA;               C 538 495 530 502 518 498&#xA;               C 510 495 510 485 510 470 Z"></path>

      
      <path d="M 282 470&#xA;               C 282 460 290 452 300 452&#xA;               C 310 452 318 460 318 470&#xA;               C 318 480 310 488 300 488&#xA;               C 290 488 282 480 282 470 Z"></path>
    </g>
  </g>
</svg>