<svg xmlns="http://www.w3.org/2000/svg" viewBox="0 0 200 240" preserveAspectRatio="xMidYMid meet">
  <rect width="200" height="240" rx="6" fill="#0B5FB0"/>
  <g fill="#fff" stroke="none">
    <!-- إنسان calligraphy — stylized thuluth-inspired strokes -->
    <!-- alif with hamza flame -->
    <path d="M55 35 Q60 30 67 38 Q72 46 70 60 Q66 55 60 53 Q53 50 50 45 Q52 38 55 35 Z"/>
    <path d="M55 70 Q56 110 60 145 Q63 175 70 195 L78 200 Q73 175 70 140 Q66 100 64 70 Z"/>

    <!-- noon (ن) — round bowl with dot -->
    <path d="M82 165 Q78 178 86 188 Q105 200 130 195 Q150 188 158 175 Q160 168 154 165 Q148 168 140 173 Q120 180 100 178 Q88 175 86 168 Z"/>
    <circle cx="118" cy="155" r="4.5"/>

    <!-- seen (س) — three teeth + stretch -->
    <path d="M82 200 L88 195 L90 200 L96 195 L98 200 L104 195 L106 200 Q140 205 168 200 L168 208 Q138 212 100 210 Q90 210 82 208 Z"/>

    <!-- alif (ا) — tall spine -->
    <path d="M132 60 L140 60 Q142 110 140 175 Q138 195 134 205 L128 205 Q126 180 128 130 Q130 90 132 60 Z"/>

    <!-- noon (ن) — final, with dot -->
    <path d="M148 145 Q150 175 162 188 Q170 192 175 188 Q176 182 172 175 Q168 165 167 150 L160 148 Q158 165 160 175 Q156 168 154 155 Q152 145 148 145 Z"/>
    <circle cx="167" cy="135" r="4.5"/>
  </g>
</svg>
