<svg xmlns="http://www.w3.org/2000/svg" viewBox="0 0 100 100" width="100" height="100">
  <defs>
    <pattern id="p" x="0" y="0" width="100" height="100" patternUnits="userSpaceOnUse">
      <g fill="#A03238">
        
        <g transform="translate(50 28)">
          <path d="M 0 -16 C -7 -10 -7 0 0 8 C 7 0 7 -10 0 -16 Z" opacity="0.8"></path>
        </g>
        <g transform="translate(20 70) scale(0.7) rotate(45)">
          <path d="M 0 -16 C -7 -10 -7 0 0 8 C 7 0 7 -10 0 -16 Z" opacity="0.55"></path>
        </g>
        <g transform="translate(80 70) scale(0.7) rotate(-45)">
          <path d="M 0 -16 C -7 -10 -7 0 0 8 C 7 0 7 -10 0 -16 Z" opacity="0.55"></path>
        </g>
        
        <path d="M 50 92 L 56 86 L 50 80 L 44 86 Z" opacity="0.7"></path>
        <path d="M 50 8 L 53 5 L 50 2 L 47 5 Z" opacity="0.5"></path>
      </g>
      <g fill="none" stroke="#A03238" stroke-width="0.6" opacity="0.4">
        <circle cx="50" cy="50" r="40"></circle>
        <circle cx="0" cy="50" r="20"></circle>
        <circle cx="100" cy="50" r="20"></circle>
        <circle cx="50" cy="0" r="20"></circle>
        <circle cx="50" cy="100" r="20"></circle>
      </g>
    </pattern>
  </defs>
  <rect width="100" height="100" fill="url(#p)"></rect>
</svg>